<svg width="23" height="23" viewBox="0 0 23 23" fill="none" xmlns="http://www.w3.org/2000/svg">
<path d="M20.2586 22.6836C21.7055 22.6836 22.8828 21.5008 22.8828 20.0469V16.5312C22.8828 16.1531 22.641 15.8175 22.2825 15.6976L17.0215 13.9398C16.7639 13.8538 16.4813 13.8916 16.2554 14.0421L14.0182 15.5336C11.6171 14.3943 8.77924 11.5816 7.65049 9.2232L9.14147 6.98674C9.29199 6.76092 9.32979 6.47814 9.24377 6.22068L7.48596 0.959727C7.36613 0.601133 7.03045 0.359375 6.65234 0.359375H3.13672C1.68283 0.359375 0.5 1.53658 0.5 2.98361C0.5 7.83969 2.70805 12.8236 6.55801 16.6575C10.4038 20.4871 15.3975 22.6836 20.2586 22.6836ZM3.13672 2.11719H6.01936L7.44025 6.36969L5.92109 8.6484C5.76055 8.88922 5.72885 9.19361 5.83637 9.46232C6.42084 10.9235 7.59049 12.5669 9.1298 14.0898C10.659 15.6026 12.3104 16.7595 13.7799 17.3472C14.0485 17.4547 14.353 17.423 14.5938 17.2625L16.8726 15.7433L21.125 17.1642V20.0469C21.125 20.5397 20.7444 20.9258 20.2586 20.9258C11.0059 20.9258 2.25781 12.2062 2.25781 2.98361C2.25781 2.49775 2.64389 2.11719 3.13672 2.11719V2.11719Z" fill="white"/>
</svg>
