<svg width="52" height="16" viewBox="0 0 52 16" fill="none" xmlns="http://www.w3.org/2000/svg">
<path d="M1.584 12C1.224 12 1.044 11.82 1.044 11.46V4.08C1.044 3.72 1.224 3.54 1.584 3.54H6.048C6.328 3.54 6.468 3.676 6.468 3.948C6.468 4.228 6.328 4.368 6.048 4.368H2.004V7.296H5.796C6.076 7.296 6.216 7.432 6.216 7.704C6.216 7.984 6.076 8.124 5.796 8.124H2.004V11.172H6.048C6.328 11.172 6.468 11.308 6.468 11.58C6.468 11.86 6.328 12 6.048 12H1.584ZM8.38809 12.084C8.06809 12.084 7.90809 11.916 7.90809 11.58V6.576C7.90809 6.248 8.06409 6.084 8.37609 6.084C8.69609 6.084 8.85609 6.248 8.85609 6.576V7.164C9.04809 6.796 9.32009 6.52 9.67209 6.336C10.0241 6.152 10.4201 6.06 10.8601 6.06C12.2441 6.06 12.9361 6.828 12.9361 8.364V11.58C12.9361 11.916 12.7761 12.084 12.4561 12.084C12.1281 12.084 11.9641 11.916 11.9641 11.58V8.424C11.9641 7.88 11.8561 7.484 11.6401 7.236C11.4321 6.98 11.0961 6.852 10.6321 6.852C10.0961 6.852 9.66809 7.02 9.34809 7.356C9.03609 7.684 8.88009 8.124 8.88009 8.676V11.58C8.88009 11.916 8.71609 12.084 8.38809 12.084ZM17.3084 14.268C16.8844 14.268 16.4684 14.216 16.0604 14.112C15.6604 14.016 15.2964 13.86 14.9684 13.644C14.8484 13.572 14.7764 13.484 14.7524 13.38C14.7364 13.284 14.7524 13.188 14.8004 13.092C14.8484 13.004 14.9164 12.94 15.0044 12.9C15.1004 12.86 15.2004 12.868 15.3044 12.924C15.6564 13.14 15.9924 13.288 16.3124 13.368C16.6324 13.448 16.9484 13.488 17.2604 13.488C18.4124 13.488 18.9884 12.896 18.9884 11.712V10.68C18.8204 11.048 18.5564 11.34 18.1964 11.556C17.8444 11.764 17.4404 11.868 16.9844 11.868C16.4484 11.868 15.9844 11.744 15.5924 11.496C15.2004 11.248 14.8964 10.908 14.6804 10.476C14.4724 10.036 14.3684 9.528 14.3684 8.952C14.3684 8.376 14.4724 7.872 14.6804 7.44C14.8964 7 15.2004 6.66 15.5924 6.42C15.9844 6.18 16.4484 6.06 16.9844 6.06C17.4404 6.06 17.8444 6.16 18.1964 6.36C18.5484 6.56 18.8084 6.84 18.9764 7.2V6.576C18.9764 6.248 19.1364 6.084 19.4564 6.084C19.7764 6.084 19.9364 6.248 19.9364 6.576V11.58C19.9364 12.476 19.7124 13.148 19.2644 13.596C18.8244 14.044 18.1724 14.268 17.3084 14.268ZM17.1644 11.076C17.7244 11.076 18.1684 10.884 18.4964 10.5C18.8244 10.116 18.9884 9.6 18.9884 8.952C18.9884 8.304 18.8244 7.792 18.4964 7.416C18.1684 7.032 17.7244 6.84 17.1644 6.84C16.6124 6.84 16.1724 7.032 15.8444 7.416C15.5164 7.792 15.3524 8.304 15.3524 8.952C15.3524 9.6 15.5164 10.116 15.8444 10.5C16.1724 10.884 16.6124 11.076 17.1644 11.076ZM23.5357 12.108C22.9597 12.108 22.5197 11.936 22.2157 11.592C21.9117 11.24 21.7597 10.732 21.7597 10.068V3.948C21.7597 3.62 21.9197 3.456 22.2397 3.456C22.5677 3.456 22.7317 3.62 22.7317 3.948V9.996C22.7317 10.852 23.0717 11.28 23.7517 11.28C23.8237 11.28 23.8877 11.276 23.9437 11.268C23.9997 11.26 24.0557 11.256 24.1117 11.256C24.1997 11.248 24.2597 11.268 24.2917 11.316C24.3317 11.364 24.3517 11.46 24.3517 11.604C24.3517 11.876 24.2157 12.032 23.9437 12.072C23.8797 12.088 23.8117 12.096 23.7397 12.096C23.6677 12.104 23.5997 12.108 23.5357 12.108ZM25.7904 4.764C25.3664 4.764 25.1544 4.564 25.1544 4.164C25.1544 3.772 25.3664 3.576 25.7904 3.576C26.2144 3.576 26.4264 3.772 26.4264 4.164C26.4264 4.564 26.2144 4.764 25.7904 4.764ZM25.7904 12.06C25.4704 12.06 25.3104 11.884 25.3104 11.532V6.624C25.3104 6.28 25.4704 6.108 25.7904 6.108C26.1184 6.108 26.2824 6.28 26.2824 6.624V11.532C26.2824 11.884 26.1184 12.06 25.7904 12.06ZM30.0675 12.108C29.7075 12.108 29.3435 12.064 28.9755 11.976C28.6155 11.88 28.2795 11.728 27.9675 11.52C27.8235 11.432 27.7515 11.32 27.7515 11.184C27.7595 11.04 27.8155 10.928 27.9195 10.848C28.0235 10.768 28.1555 10.768 28.3155 10.848C28.6275 11.04 28.9275 11.176 29.2155 11.256C29.5115 11.328 29.8035 11.364 30.0915 11.364C30.5475 11.364 30.8915 11.28 31.1235 11.112C31.3555 10.944 31.4715 10.716 31.4715 10.428C31.4715 10.204 31.3955 10.028 31.2435 9.9C31.0915 9.764 30.8515 9.66 30.5235 9.588L29.4315 9.348C28.4395 9.132 27.9435 8.62 27.9435 7.812C27.9435 7.284 28.1515 6.86 28.5675 6.54C28.9915 6.22 29.5435 6.06 30.2235 6.06C30.5675 6.06 30.8995 6.108 31.2195 6.204C31.5395 6.292 31.8275 6.436 32.0835 6.636C32.2195 6.732 32.2795 6.848 32.2635 6.984C32.2475 7.12 32.1835 7.228 32.0715 7.308C31.9675 7.38 31.8395 7.368 31.6875 7.272C31.4475 7.112 31.2035 6.996 30.9555 6.924C30.7075 6.844 30.4635 6.804 30.2235 6.804C29.7755 6.804 29.4355 6.892 29.2035 7.068C28.9715 7.244 28.8555 7.476 28.8555 7.764C28.8555 8.212 29.1515 8.5 29.7435 8.628L30.8355 8.856C31.3475 8.968 31.7355 9.148 31.9995 9.396C32.2635 9.636 32.3955 9.964 32.3955 10.38C32.3955 10.916 32.1835 11.34 31.7595 11.652C31.3355 11.956 30.7715 12.108 30.0675 12.108ZM34.3568 12.084C34.0368 12.084 33.8768 11.916 33.8768 11.58V3.948C33.8768 3.62 34.0368 3.456 34.3568 3.456C34.6848 3.456 34.8488 3.62 34.8488 3.948V7.128C35.0408 6.776 35.3088 6.512 35.6528 6.336C36.0048 6.152 36.3968 6.06 36.8288 6.06C38.2128 6.06 38.9048 6.828 38.9048 8.364V11.58C38.9048 11.916 38.7448 12.084 38.4248 12.084C38.0968 12.084 37.9328 11.916 37.9328 11.58V8.424C37.9328 7.88 37.8248 7.484 37.6088 7.236C37.4008 6.98 37.0648 6.852 36.6008 6.852C36.0648 6.852 35.6368 7.02 35.3168 7.356C35.0048 7.684 34.8488 8.124 34.8488 8.676V11.58C34.8488 11.916 34.6848 12.084 34.3568 12.084Z" fill="white"/>
<path d="M48.5 9.909C48.3745 9.909 48.2491 9.86317 48.1534 9.77169L45.1436 6.89157C44.9521 6.70836 44.9521 6.41131 45.1436 6.22817C45.335 6.04504 45.6454 6.04504 45.8368 6.22817L48.5 8.77666L51.1632 6.22826C51.3546 6.04513 51.665 6.04513 51.8563 6.22826C52.0479 6.4114 52.0479 6.70845 51.8563 6.89166L48.8465 9.77178C48.7508 9.86327 48.6254 9.909 48.5 9.909Z" fill="white"/>
</svg>
