<svg width="24" height="21" viewBox="0 0 24 21" fill="none" xmlns="http://www.w3.org/2000/svg">
<path d="M12.079 19.2724C12.067 19.811 11.569 20.2017 11.072 20.1112C11.755 20.236 13.344 20.4108 14.238 20.1112C13.72 20.1893 13.247 19.7946 13.235 19.2683C13.235 19.297 12.885 16.505 14.283 13.9227C15.48 11.7145 16.146 11.9448 17.548 11.4102C19.344 10.7235 21.19 10.0163 22.457 8.47424C24.525 5.95359 23.978 2.49951 23.801 1.56609C21.581 4.75289 19.332 3.84825 17.067 5.29978C14.764 6.77599 13.736 9.10336 13.958 11.5953C16.24 7.60661 19.122 9.36247 22.099 5.3738C21.375 6.5745 20.385 7.61895 19.151 8.36322C17.379 9.44877 16.524 9.13217 13.839 13.0304C13.346 13.7459 12.947 14.5271 12.659 15.3454C12.326 14.3997 11.845 13.4909 11.236 12.6932C10.015 11.1018 9.47698 10.2013 8.40798 9.43237C6.94398 8.37144 4.45199 7.96436 2.44189 4.61719C5.79699 9.11987 8.94198 7.06383 11.5 11.5418C11.754 8.70446 10.554 6.15097 8.04199 4.53906C5.52099 2.92305 3.02158 3.93049 0.550583 0.381836C0.353283 1.42217 -0.255212 5.26689 2.04719 8.07127C3.45269 9.78427 5.49498 10.5661 7.48698 11.3285L7.50699 11.3362C8.46499 11.7022 10.928 11.8132 11.89 16.2007C12.153 17.4179 12.108 18.121 12.079 19.2724Z" fill="#00730C"/>
</svg>
