<svg width="97" height="30" viewBox="0 0 97 30" fill="none" xmlns="http://www.w3.org/2000/svg">
<path d="M2.63996 29.32C0.933286 29.32 0.0799561 28.44 0.0799561 26.68V3.39998C0.0799561 1.66668 0.946626 0.799981 2.67996 0.799981H12.32C15.4133 0.799981 17.8 1.57328 19.48 3.11998C21.16 4.66668 22 6.82668 22 9.59998C22 12.3733 21.16 14.5467 19.48 16.12C17.8 17.6667 15.4133 18.44 12.32 18.44H5.19996V26.68C5.19996 28.44 4.34663 29.32 2.63996 29.32ZM5.19996 14.4H11.52C15.2 14.4 17.04 12.8 17.04 9.59998C17.04 6.42668 15.2 4.83998 11.52 4.83998H5.19996V14.4ZM32.3738 29.4C27.9204 29.4 25.6938 26.9067 25.6938 21.92V2.99998C25.6938 1.31998 26.5204 0.47998 28.1738 0.47998C29.8538 0.47998 30.6938 1.31998 30.6938 2.99998V21.68C30.6938 24.08 31.6938 25.28 33.6938 25.28C33.9071 25.28 34.1071 25.28 34.2938 25.28C34.4804 25.2533 34.6671 25.2267 34.8537 25.2C35.2271 25.1467 35.4804 25.2533 35.6138 25.52C35.7471 25.76 35.8138 26.2667 35.8138 27.04C35.8138 27.7067 35.6804 28.2267 35.4138 28.6C35.1471 28.9733 34.7071 29.2 34.0938 29.28C33.5338 29.36 32.9604 29.4 32.3738 29.4ZM44.9072 29.4C43.4939 29.4 42.2272 29.1333 41.1072 28.6C40.0139 28.04 39.1472 27.2933 38.5072 26.36C37.8939 25.4267 37.5872 24.3733 37.5872 23.2C37.5872 21.76 37.9605 20.6267 38.7072 19.8C39.4539 18.9467 40.6672 18.3333 42.3472 17.96C44.0272 17.5867 46.2805 17.4 49.1072 17.4H50.5072V16.56C50.5072 15.2267 50.2139 14.2667 49.6272 13.68C49.0405 13.0933 48.0539 12.8 46.6672 12.8C45.8939 12.8 45.0539 12.8933 44.1472 13.08C43.2672 13.2667 42.3339 13.5867 41.3472 14.04C40.7072 14.3333 40.1739 14.3733 39.7472 14.16C39.3205 13.92 39.0272 13.56 38.8672 13.08C38.7339 12.5733 38.7605 12.0667 38.9472 11.56C39.1605 11.0533 39.5739 10.68 40.1872 10.44C41.4139 9.93328 42.5872 9.57328 43.7072 9.35998C44.8539 9.14668 45.8939 9.03998 46.8272 9.03998C49.6805 9.03998 51.8005 9.70668 53.1872 11.04C54.5739 12.3467 55.2672 14.3867 55.2672 17.16V26.76C55.2672 28.4667 54.4939 29.32 52.9472 29.32C51.3739 29.32 50.5872 28.4667 50.5872 26.76V25.88C50.1339 26.9733 49.4139 27.84 48.4272 28.48C47.4405 29.0933 46.2672 29.4 44.9072 29.4ZM45.9472 25.96C47.2539 25.96 48.3339 25.5067 49.1872 24.6C50.0672 23.6933 50.5072 22.5467 50.5072 21.16V20.28H49.1472C46.6405 20.28 44.8939 20.48 43.9072 20.88C42.9472 21.2533 42.4672 21.9467 42.4672 22.96C42.4672 23.84 42.7739 24.56 43.3872 25.12C44.0005 25.68 44.8539 25.96 45.9472 25.96ZM62.8222 29.32C61.1688 29.32 60.3422 28.4667 60.3422 26.76V11.64C60.3422 9.95998 61.1555 9.11998 62.7822 9.11998C64.4089 9.11998 65.2222 9.95998 65.2222 11.64V12.48C65.8889 11.36 66.7822 10.5067 67.9022 9.91998C69.0489 9.33328 70.3289 9.03998 71.7422 9.03998C76.3555 9.03998 78.6622 11.72 78.6622 17.08V26.76C78.6622 28.4667 77.8354 29.32 76.1822 29.32C74.5022 29.32 73.6622 28.4667 73.6622 26.76V17.32C73.6622 15.8 73.3689 14.6933 72.7822 14C72.2222 13.3067 71.3421 12.96 70.1422 12.96C68.6755 12.96 67.5022 13.4267 66.6222 14.36C65.7689 15.2667 65.3422 16.48 65.3422 18V26.76C65.3422 28.4667 64.5022 29.32 62.8222 29.32ZM92.7006 29.4C87.5273 29.4 84.9406 26.84 84.9406 21.72V13.2H82.8606C81.5273 13.2 80.8606 12.5733 80.8606 11.32C80.8606 10.0667 81.5273 9.43998 82.8606 9.43998H84.9406V5.79998C84.9406 4.11998 85.7806 3.27998 87.4606 3.27998C89.114 3.27998 89.9406 4.11998 89.9406 5.79998V9.43998H94.1806C95.514 9.43998 96.1806 10.0667 96.1806 11.32C96.1806 12.5733 95.514 13.2 94.1806 13.2H89.9406V21.44C89.9406 22.72 90.2206 23.68 90.7806 24.32C91.3406 24.96 92.2473 25.28 93.5006 25.28C93.954 25.28 94.354 25.24 94.7006 25.16C95.0473 25.08 95.354 25.0267 95.6206 25C95.9406 24.9733 96.2073 25.08 96.4206 25.32C96.634 25.5333 96.7406 25.9867 96.7406 26.68C96.7406 27.2133 96.6473 27.6933 96.4606 28.12C96.3006 28.52 95.994 28.8 95.5406 28.96C95.194 29.0667 94.7406 29.16 94.1806 29.24C93.6206 29.3467 93.1273 29.4 92.7006 29.4Z" fill="#0B0B0B"/>
</svg>
