<svg width="17" height="21" viewBox="0 0 17 21" fill="none" xmlns="http://www.w3.org/2000/svg">
<path d="M8.25203 20.4C7.10603 20.4 5.89203 20.28 4.61203 20.04C3.33203 19.8 2.18603 19.3867 1.17203 18.8C0.61203 18.48 0.266037 18.0933 0.132037 17.64C-0.000963457 17.16 0.0120298 16.72 0.17203 16.32C0.35903 15.8933 0.652035 15.5867 1.05203 15.4C1.47903 15.2133 1.97203 15.2533 2.53203 15.52C3.59903 16.0267 4.59903 16.3867 5.53203 16.6C6.46603 16.7867 7.38603 16.88 8.29203 16.88C9.57203 16.88 10.519 16.6667 11.132 16.24C11.772 15.7867 12.092 15.2 12.092 14.48C12.092 13.36 11.266 12.64 9.61203 12.32L5.61203 11.56C2.22603 10.92 0.53203 9.16004 0.53203 6.28004C0.53203 5.00004 0.879031 3.89334 1.57203 2.96004C2.29203 2.02674 3.27903 1.30674 4.53203 0.800037C5.78603 0.293337 7.22603 0.0400391 8.85203 0.0400391C11.199 0.0400391 13.292 0.560039 15.132 1.60004C15.639 1.86674 15.932 2.24004 16.012 2.72004C16.119 3.17334 16.066 3.61334 15.852 4.04004C15.666 4.44004 15.359 4.73334 14.932 4.92004C14.506 5.08004 14.012 5.02674 13.452 4.76004C12.626 4.33334 11.826 4.02674 11.052 3.84004C10.306 3.65334 9.58603 3.56004 8.89203 3.56004C7.58603 3.56004 6.61203 3.78674 5.97203 4.24004C5.35903 4.69334 5.05203 5.29334 5.05203 6.04004C5.05203 7.21334 5.81203 7.93334 7.33203 8.20004L11.332 8.96004C13.066 9.28004 14.372 9.86674 15.252 10.72C16.159 11.5733 16.612 12.72 16.612 14.16C16.612 16.1067 15.852 17.64 14.332 18.76C12.812 19.8533 10.786 20.4 8.25203 20.4Z" fill="#00730C"/>
</svg>
