<svg width="20" height="17" viewBox="0 0 20 17" fill="none" xmlns="http://www.w3.org/2000/svg">
<path d="M5.92148 16.0698C6.24984 16.2059 6.62795 16.1306 6.87932 15.8793L10.1375 12.6211H13.2891C16.7138 12.6211 19.5 9.86115 19.5 6.46875C19.5 3.07635 16.7138 0.316406 13.2891 0.316406H6.25781C2.86541 0.316406 0.105469 3.07635 0.105469 6.46875C0.105469 9.56279 2.40135 12.1307 5.37891 12.5585V15.2578C5.37891 15.6133 5.59307 15.9337 5.92148 16.0698V16.0698ZM1.86328 6.46875C1.86328 4.04561 3.83467 2.07422 6.25781 2.07422H13.2891C15.7445 2.07422 17.7422 4.04561 17.7422 6.46875C17.7422 8.89189 15.7445 10.8633 13.2891 10.8633H9.77344C9.54029 10.8633 9.31676 10.9559 9.15199 11.1207L7.13672 13.136V11.7422C7.13672 11.2568 6.7432 10.8633 6.25781 10.8633C3.83467 10.8633 1.86328 8.89189 1.86328 6.46875Z" fill="white"/>
</svg>
